solid /Volumes/Samsung USB/xyzCalibration_cube.stl
	facet normal -1.000000 -0.000000 -0.000000
		outer loop
			vertex 94.317276 111.720174 20.000000
			vertex 94.317276 111.720174 0.000000
			vertex 94.317276 91.720174 20.000000
		endloop
	endfacet
	facet normal -1.000000 0.000000 0.000000
		outer loop
			vertex 94.317276 111.720174 0.000000
			vertex 94.317276 91.720174 0.000000
			vertex 94.317276 91.720174 20.000000
		endloop
	endfacet
	facet normal 0.000000 -1.000000 -0.000000
		outer loop
			vertex 99.357620 91.720174 3.680854
			vertex 94.317276 91.720174 0.000000
			vertex 100.970078 91.720174 3.680854
		endloop
	endfacet
	facet normal 0.000000 -1.000000 -0.000000
		outer loop
			vertex 100.970078 91.720174 3.680854
			vertex 94.317276 91.720174 0.000000
			vertex 106.852493 91.720174 3.680854
		endloop
	endfacet
	facet normal 0.000000 -1.000000 0.000000
		outer loop
			vertex 100.970078 91.720174 3.680854
			vertex 106.852493 91.720174 3.680854
			vertex 103.870361 91.720174 8.576234
		endloop
	endfacet
	facet normal 0.000000 -1.000000 -0.000000
		outer loop
			vertex 108.634018 91.720174 3.680869
			vertex 106.852493 91.720174 3.680854
			vertex 114.317276 91.720174 0.000000
		endloop
	endfacet
	facet normal 0.000000 -1.000000 -0.000000
		outer loop
			vertex 106.852493 91.720174 3.680854
			vertex 94.317276 91.720174 0.000000
			vertex 114.317276 91.720174 0.000000
		endloop
	endfacet
	facet normal 0.000000 -1.000000 0.000000
		outer loop
			vertex 94.317276 91.720174 20.000000
			vertex 94.317276 91.720174 0.000000
			vertex 99.574902 91.720174 15.985729
		endloop
	endfacet
	facet normal 0.000000 -1.000000 0.000000
		outer loop
			vertex 99.357620 91.720174 3.680854
			vertex 102.902870 91.720174 10.067484
			vertex 99.574902 91.720174 15.985729
		endloop
	endfacet
	facet normal 0.000000 -1.000000 0.000000
		outer loop
			vertex 94.317276 91.720174 0.000000
			vertex 99.357620 91.720174 3.680854
			vertex 99.574902 91.720174 15.985729
		endloop
	endfacet
	facet normal 0.000000 -1.000000 0.000000
		outer loop
			vertex 94.317276 91.720174 20.000000
			vertex 99.574902 91.720174 15.985729
			vertex 101.222183 91.720174 15.991924
		endloop
	endfacet
	facet normal 0.000000 -1.000000 0.000000
		outer loop
			vertex 101.222183 91.720174 15.991924
			vertex 103.852463 91.720174 11.336412
			vertex 106.791176 91.720174 15.991924
		endloop
	endfacet
	facet normal 0.000000 -1.000000 0.000000
		outer loop
			vertex 94.317276 91.720174 20.000000
			vertex 101.222183 91.720174 15.991924
			vertex 106.791176 91.720174 15.991924
		endloop
	endfacet
	facet normal 0.000000 -1.000000 0.000000
		outer loop
			vertex 104.624771 91.720174 10.021875
			vertex 108.634018 91.720174 3.680869
			vertex 108.418114 91.720174 15.956669
		endloop
	endfacet
	facet normal 0.000000 -1.000000 0.000000
		outer loop
			vertex 108.634018 91.720174 3.680869
			vertex 114.317276 91.720174 0.000000
			vertex 108.418114 91.720174 15.956669
		endloop
	endfacet
	facet normal 0.000000 -1.000000 0.000000
		outer loop
			vertex 106.791176 91.720174 15.991924
			vertex 108.418114 91.720174 15.956669
			vertex 114.317276 91.720174 20.000000
		endloop
	endfacet
	facet normal 0.000000 -1.000000 0.000000
		outer loop
			vertex 108.418114 91.720174 15.956669
			vertex 114.317276 91.720174 0.000000
			vertex 114.317276 91.720174 20.000000
		endloop
	endfacet
	facet normal 0.000000 -1.000000 0.000000
		outer loop
			vertex 94.317276 91.720174 20.000000
			vertex 106.791176 91.720174 15.991924
			vertex 114.317276 91.720174 20.000000
		endloop
	endfacet
	facet normal 0.000000 0.000000 1.000000
		outer loop
			vertex 100.639467 96.147415 20.000000
			vertex 94.317276 91.720174 20.000000
			vertex 100.639467 95.727244 20.000000
		endloop
	endfacet
	facet normal 0.000000 0.000000 1.000000
		outer loop
			vertex 114.317276 91.720174 20.000000
			vertex 108.429463 95.727244 20.000000
			vertex 100.639467 95.727244 20.000000
		endloop
	endfacet
	facet normal 0.000000 0.000000 1.000000
		outer loop
			vertex 114.317276 91.720174 20.000000
			vertex 108.429463 97.239862 20.000000
			vertex 108.429463 95.727244 20.000000
		endloop
	endfacet
	facet normal 0.000000 0.000000 1.000000
		outer loop
			vertex 114.317276 91.720174 20.000000
			vertex 100.639467 95.727244 20.000000
			vertex 94.317276 91.720174 20.000000
		endloop
	endfacet
	facet normal 0.000000 0.000000 1.000000
		outer loop
			vertex 100.723500 106.525671 20.000000
			vertex 94.317276 111.720174 20.000000
			vertex 94.317276 91.720174 20.000000
		endloop
	endfacet
	facet normal 0.000000 0.000000 1.000000
		outer loop
			vertex 100.723500 106.525671 20.000000
			vertex 94.317276 91.720174 20.000000
			vertex 100.639467 96.147415 20.000000
		endloop
	endfacet
	facet normal 0.000000 0.000000 1.000000
		outer loop
			vertex 100.723500 108.038295 20.000000
			vertex 94.317276 111.720174 20.000000
			vertex 100.723500 106.525671 20.000000
		endloop
	endfacet
	facet normal 0.000000 0.000000 1.000000
		outer loop
			vertex 114.317276 111.720174 20.000000
			vertex 108.244587 108.038295 20.000000
			vertex 108.244587 107.618118 20.000000
		endloop
	endfacet
	facet normal 0.000000 0.000000 1.000000
		outer loop
			vertex 114.317276 111.720174 20.000000
			vertex 108.429463 97.239862 20.000000
			vertex 114.317276 91.720174 20.000000
		endloop
	endfacet
	facet normal 0.000000 0.000000 1.000000
		outer loop
			vertex 114.317276 111.720174 20.000000
			vertex 108.244587 107.618118 20.000000
			vertex 108.429463 97.239862 20.000000
		endloop
	endfacet
	facet normal 0.000000 0.000000 1.000000
		outer loop
			vertex 114.317276 111.720174 20.000000
			vertex 94.317276 111.720174 20.000000
			vertex 100.723500 108.038295 20.000000
		endloop
	endfacet
	facet normal 0.000000 0.000000 1.000000
		outer loop
			vertex 114.317276 111.720174 20.000000
			vertex 100.723500 108.038295 20.000000
			vertex 108.244587 108.038295 20.000000
		endloop
	endfacet
	facet normal 0.000000 0.000000 1.000000
		outer loop
			vertex 108.244587 107.618118 20.000000
			vertex 102.933608 97.239862 20.000000
			vertex 108.429463 97.239862 20.000000
		endloop
	endfacet
	facet normal 0.000000 0.000000 1.000000
		outer loop
			vertex 100.639467 96.147415 20.000000
			vertex 105.933640 106.525671 20.000000
			vertex 100.723500 106.525671 20.000000
		endloop
	endfacet
	facet normal 0.000000 1.000000 0.000000
		outer loop
			vertex 114.317276 111.720174 20.000000
			vertex 114.317276 111.720174 0.000000
			vertex 94.317276 111.720174 0.000000
		endloop
	endfacet
	facet normal 0.000000 1.000000 0.000000
		outer loop
			vertex 114.317276 111.720174 20.000000
			vertex 94.317276 111.720174 0.000000
			vertex 94.317276 111.720174 20.000000
		endloop
	endfacet
	facet normal 0.000000 0.000000 -1.000000
		outer loop
			vertex 94.317276 91.720174 0.000000
			vertex 94.317276 111.720174 0.000000
			vertex 114.317276 111.720174 0.000000
		endloop
	endfacet
	facet normal 0.000000 0.000000 -1.000000
		outer loop
			vertex 114.317276 91.720174 0.000000
			vertex 94.317276 91.720174 0.000000
			vertex 114.317276 111.720174 0.000000
		endloop
	endfacet
	facet normal 1.000000 0.000000 0.000000
		outer loop
			vertex 114.317276 102.171092 9.229810
			vertex 114.317276 102.230764 3.717464
			vertex 114.317276 111.720174 0.000000
		endloop
	endfacet
	facet normal 1.000000 0.000000 0.000000
		outer loop
			vertex 114.317276 91.720174 0.000000
			vertex 114.317276 102.230764 3.717464
			vertex 114.317276 100.550172 3.699273
		endloop
	endfacet
	facet normal 1.000000 0.000000 0.000000
		outer loop
			vertex 114.317276 91.720174 0.000000
			vertex 114.317276 111.720174 0.000000
			vertex 114.317276 102.230764 3.717464
		endloop
	endfacet
	facet normal 1.000000 0.000000 0.000000
		outer loop
			vertex 114.317276 100.490501 9.211618
			vertex 114.317276 91.720174 0.000000
			vertex 114.317276 100.550172 3.699273
		endloop
	endfacet
	facet normal 1.000000 -0.000000 0.000000
		outer loop
			vertex 114.317276 106.046893 16.070559
			vertex 114.317276 111.720174 0.000000
			vertex 114.317276 111.720174 20.000000
		endloop
	endfacet
	facet normal 1.000000 0.000000 0.000000
		outer loop
			vertex 114.317276 106.046893 16.070559
			vertex 114.317276 102.171092 9.229810
			vertex 114.317276 111.720174 0.000000
		endloop
	endfacet
	facet normal 1.000000 0.000000 0.000000
		outer loop
			vertex 114.317276 104.315884 16.051821
			vertex 114.317276 106.046893 16.070559
			vertex 114.317276 111.720174 20.000000
		endloop
	endfacet
	facet normal 1.000000 -0.000000 0.000000
		outer loop
			vertex 114.317276 98.181727 15.985423
			vertex 114.317276 101.307023 10.640724
			vertex 114.317276 104.315884 16.051821
		endloop
	endfacet
	facet normal 1.000000 0.000000 0.000000
		outer loop
			vertex 114.317276 96.450716 15.966685
			vertex 114.317276 91.720174 0.000000
			vertex 114.317276 100.490501 9.211618
		endloop
	endfacet
	facet normal 1.000000 0.000000 0.000000
		outer loop
			vertex 114.317276 91.720174 20.000000
			vertex 114.317276 96.450716 15.966685
			vertex 114.317276 98.181727 15.985423
		endloop
	endfacet
	facet normal 1.000000 0.000000 0.000000
		outer loop
			vertex 114.317276 91.720174 20.000000
			vertex 114.317276 98.181727 15.985423
			vertex 114.317276 104.315884 16.051821
		endloop
	endfacet
	facet normal 1.000000 -0.000000 0.000000
		outer loop
			vertex 114.317276 91.720174 20.000000
			vertex 114.317276 104.315884 16.051821
			vertex 114.317276 111.720174 20.000000
		endloop
	endfacet
	facet normal 1.000000 0.000000 0.000000
		outer loop
			vertex 114.317276 91.720174 20.000000
			vertex 114.317276 91.720174 0.000000
			vertex 114.317276 96.450716 15.966685
		endloop
	endfacet
	facet normal -0.842589 0.000448 0.538557
		outer loop
			vertex 108.418114 91.720174 15.956669
			vertex 108.418114 93.621741 15.955086
			vertex 104.624771 91.720174 10.021875
		endloop
	endfacet
	facet normal -0.842589 0.000448 0.538557
		outer loop
			vertex 104.624771 91.720174 10.021875
			vertex 108.418114 93.621741 15.955086
			vertex 104.624771 93.616800 10.020296
		endloop
	endfacet
	facet normal -0.845224 -0.000445 -0.534412
		outer loop
			vertex 104.624771 91.720174 10.021875
			vertex 104.624771 93.616800 10.020296
			vertex 108.634018 91.720174 3.680869
		endloop
	endfacet
	facet normal -0.845224 -0.000445 -0.534412
		outer loop
			vertex 108.634018 91.720174 3.680869
			vertex 104.624771 93.616800 10.020296
			vertex 108.634018 93.611522 3.679295
		endloop
	endfacet
	facet normal -0.000009 0.000832 1.000000
		outer loop
			vertex 106.852493 91.720174 3.680854
			vertex 108.634018 91.720174 3.680869
			vertex 108.634018 93.611522 3.679295
		endloop
	endfacet
	facet normal -0.000009 0.000832 1.000000
		outer loop
			vertex 106.852493 91.720174 3.680854
			vertex 108.634018 93.611522 3.679295
			vertex 106.852493 93.611522 3.679279
		endloop
	endfacet
	facet normal 0.854017 0.000433 0.520244
		outer loop
			vertex 103.870361 91.720174 8.576234
			vertex 106.852493 91.720174 3.680854
			vertex 103.870361 93.615597 8.574656
		endloop
	endfacet
	facet normal 0.854017 0.000433 0.520244
		outer loop
			vertex 106.852493 91.720174 3.680854
			vertex 106.852493 93.611522 3.679279
			vertex 103.870361 93.615597 8.574656
		endloop
	endfacet
	facet normal -0.860344 0.000424 0.509714
		outer loop
			vertex 103.870361 91.720174 8.576234
			vertex 103.870361 93.615597 8.574656
			vertex 100.970078 91.720174 3.680854
		endloop
	endfacet
	facet normal -0.860344 0.000424 0.509714
		outer loop
			vertex 100.970078 91.720174 3.680854
			vertex 103.870361 93.615597 8.574656
			vertex 100.970078 93.611522 3.679279
		endloop
	endfacet
	facet normal -0.000000 0.000832 1.000000
		outer loop
			vertex 99.357620 91.720174 3.680854
			vertex 100.970078 91.720174 3.680854
			vertex 99.357620 93.611522 3.679279
		endloop
	endfacet
	facet normal 0.000000 0.000832 1.000000
		outer loop
			vertex 100.970078 91.720174 3.680854
			vertex 100.970078 93.611522 3.679279
			vertex 99.357620 93.611522 3.679279
		endloop
	endfacet
	facet normal 0.874324 -0.000404 -0.485342
		outer loop
			vertex 102.902870 91.720174 10.067484
			vertex 99.357620 91.720174 3.680854
			vertex 102.902870 93.616839 10.065905
		endloop
	endfacet
	facet normal 0.874324 -0.000404 -0.485342
		outer loop
			vertex 99.357620 91.720174 3.680854
			vertex 99.357620 93.611522 3.679279
			vertex 102.902870 93.616839 10.065905
		endloop
	endfacet
	facet normal 0.871641 0.000408 0.490144
		outer loop
			vertex 99.574902 91.720174 15.985729
			vertex 102.902870 91.720174 10.067484
			vertex 99.574902 93.621766 15.984146
		endloop
	endfacet
	facet normal 0.871641 0.000408 0.490144
		outer loop
			vertex 102.902870 91.720174 10.067484
			vertex 102.902870 93.616839 10.065905
			vertex 99.574902 93.621766 15.984146
		endloop
	endfacet
	facet normal 0.003761 -0.000833 -0.999993
		outer loop
			vertex 101.222183 91.720174 15.991924
			vertex 99.574902 91.720174 15.985729
			vertex 101.222183 93.621771 15.990341
		endloop
	endfacet
	facet normal 0.003761 -0.000833 -0.999993
		outer loop
			vertex 99.574902 91.720174 15.985729
			vertex 99.574902 93.621766 15.984146
			vertex 101.222183 93.621771 15.990341
		endloop
	endfacet
	facet normal -0.870651 -0.000410 -0.491902
		outer loop
			vertex 101.222183 91.720174 15.991924
			vertex 101.222183 93.621771 15.990341
			vertex 103.852463 91.720174 11.336412
		endloop
	endfacet
	facet normal -0.870651 -0.000409 -0.491902
		outer loop
			vertex 103.852463 91.720174 11.336412
			vertex 101.222183 93.621771 15.990341
			vertex 103.852463 93.617895 11.334833
		endloop
	endfacet
	facet normal 0.845621 -0.000444 -0.533784
		outer loop
			vertex 106.791176 91.720174 15.991924
			vertex 103.852463 91.720174 11.336412
			vertex 106.791176 93.621771 15.990341
		endloop
	endfacet
	facet normal 0.845621 -0.000444 -0.533784
		outer loop
			vertex 103.852463 91.720174 11.336412
			vertex 103.852463 93.617895 11.334833
			vertex 106.791176 93.621771 15.990341
		endloop
	endfacet
	facet normal -0.021665 -0.000832 -0.999765
		outer loop
			vertex 108.418114 91.720174 15.956669
			vertex 106.791176 91.720174 15.991924
			vertex 106.791176 93.621771 15.990341
		endloop
	endfacet
	facet normal -0.021665 -0.000832 -0.999765
		outer loop
			vertex 108.418114 91.720174 15.956669
			vertex 106.791176 93.621771 15.990341
			vertex 108.418114 93.621741 15.955086
		endloop
	endfacet
	facet normal -0.890207 0.455556 0.000000
		outer loop
			vertex 108.244587 107.618118 20.000000
			vertex 108.244587 107.618118 18.000000
			vertex 102.933608 97.239862 20.000000
		endloop
	endfacet
	facet normal -0.890207 0.455556 0.000000
		outer loop
			vertex 102.933608 97.239862 20.000000
			vertex 108.244587 107.618118 18.000000
			vertex 102.933608 97.239862 18.000000
		endloop
	endfacet
	facet normal -1.000000 0.000000 0.000000
		outer loop
			vertex 108.244587 107.618118 20.000000
			vertex 108.244587 108.038295 20.000000
			vertex 108.244587 108.038295 18.000000
		endloop
	endfacet
	facet normal -1.000000 0.000000 0.000000
		outer loop
			vertex 108.244587 107.618118 20.000000
			vertex 108.244587 108.038295 18.000000
			vertex 108.244587 107.618118 18.000000
		endloop
	endfacet
	facet normal 0.000000 -1.000000 0.000000
		outer loop
			vertex 100.723500 108.038295 20.000000
			vertex 100.723500 108.038295 18.000000
			vertex 108.244587 108.038295 20.000000
		endloop
	endfacet
	facet normal 0.000000 -1.000000 -0.000000
		outer loop
			vertex 108.244587 108.038295 20.000000
			vertex 100.723500 108.038295 18.000000
			vertex 108.244587 108.038295 18.000000
		endloop
	endfacet
	facet normal 1.000000 0.000000 0.000000
		outer loop
			vertex 100.723500 106.525671 20.000000
			vertex 100.723500 106.525671 18.000000
			vertex 100.723500 108.038295 18.000000
		endloop
	endfacet
	facet normal 1.000000 0.000000 0.000000
		outer loop
			vertex 100.723500 108.038295 20.000000
			vertex 100.723500 106.525671 20.000000
			vertex 100.723500 108.038295 18.000000
		endloop
	endfacet
	facet normal 0.000000 1.000000 0.000000
		outer loop
			vertex 105.933640 106.525671 20.000000
			vertex 105.933640 106.525671 18.000000
			vertex 100.723500 106.525671 18.000000
		endloop
	endfacet
	facet normal -0.000000 1.000000 0.000000
		outer loop
			vertex 100.723500 106.525671 20.000000
			vertex 105.933640 106.525671 20.000000
			vertex 100.723500 106.525671 18.000000
		endloop
	endfacet
	facet normal 0.890792 -0.454412 0.000000
		outer loop
			vertex 100.639467 96.147415 20.000000
			vertex 100.639467 96.147415 18.000000
			vertex 105.933640 106.525671 20.000000
		endloop
	endfacet
	facet normal 0.890792 -0.454412 0.000000
		outer loop
			vertex 105.933640 106.525671 20.000000
			vertex 100.639467 96.147415 18.000000
			vertex 105.933640 106.525671 18.000000
		endloop
	endfacet
	facet normal 1.000000 0.000000 0.000000
		outer loop
			vertex 100.639467 96.147415 20.000000
			vertex 100.639467 95.727244 20.000000
			vertex 100.639467 95.727244 18.000000
		endloop
	endfacet
	facet normal 1.000000 0.000000 0.000000
		outer loop
			vertex 100.639467 96.147415 20.000000
			vertex 100.639467 95.727244 18.000000
			vertex 100.639467 96.147415 18.000000
		endloop
	endfacet
	facet normal 0.000000 1.000000 0.000000
		outer loop
			vertex 108.429463 95.727244 20.000000
			vertex 108.429463 95.727244 18.000000
			vertex 100.639467 95.727244 18.000000
		endloop
	endfacet
	facet normal -0.000000 1.000000 0.000000
		outer loop
			vertex 100.639467 95.727244 20.000000
			vertex 108.429463 95.727244 20.000000
			vertex 100.639467 95.727244 18.000000
		endloop
	endfacet
	facet normal -1.000000 0.000000 -0.000000
		outer loop
			vertex 108.429463 97.239862 20.000000
			vertex 108.429463 97.239862 18.000000
			vertex 108.429463 95.727244 18.000000
		endloop
	endfacet
	facet normal -1.000000 0.000000 0.000000
		outer loop
			vertex 108.429463 95.727244 20.000000
			vertex 108.429463 97.239862 20.000000
			vertex 108.429463 95.727244 18.000000
		endloop
	endfacet
	facet normal 0.000000 -1.000000 0.000000
		outer loop
			vertex 102.933608 97.239862 20.000000
			vertex 102.933608 97.239862 18.000000
			vertex 108.429463 97.239862 20.000000
		endloop
	endfacet
	facet normal 0.000000 -1.000000 -0.000000
		outer loop
			vertex 108.429463 97.239862 20.000000
			vertex 102.933608 97.239862 18.000000
			vertex 108.429463 97.239862 18.000000
		endloop
	endfacet
	facet normal 0.001145 -0.870056 0.492952
		outer loop
			vertex 114.317276 102.171092 9.229810
			vertex 114.317276 106.046893 16.070559
			vertex 112.379589 102.170232 9.232793
		endloop
	endfacet
	facet normal 0.001145 -0.870056 0.492952
		outer loop
			vertex 114.317276 106.046893 16.070559
			vertex 112.388401 106.046038 16.073528
			vertex 112.379589 102.170232 9.232793
		endloop
	endfacet
	facet normal -0.001544 0.010824 -0.999940
		outer loop
			vertex 114.317276 106.046893 16.070559
			vertex 114.317276 104.315884 16.051821
			vertex 112.388401 106.046038 16.073528
		endloop
	endfacet
	facet normal -0.001544 0.010825 -0.999940
		outer loop
			vertex 114.317276 104.315884 16.051821
			vertex 112.389139 104.315028 16.054789
			vertex 112.388401 106.046038 16.073528
		endloop
	endfacet
	facet normal -0.001136 0.873972 -0.485975
		outer loop
			vertex 114.317276 101.307023 10.640724
			vertex 112.382145 101.306165 10.643703
			vertex 114.317276 104.315884 16.051821
		endloop
	endfacet
	facet normal -0.001136 0.873972 -0.485975
		outer loop
			vertex 114.317276 104.315884 16.051821
			vertex 112.382145 101.306165 10.643703
			vertex 112.389139 104.315028 16.054789
		endloop
	endfacet
	facet normal -0.000394 -0.863247 -0.504781
		outer loop
			vertex 114.317276 101.307023 10.640724
			vertex 114.317276 98.181727 15.985423
			vertex 112.382145 101.306165 10.643703
		endloop
	endfacet
	facet normal -0.000394 -0.863247 -0.504781
		outer loop
			vertex 114.317276 98.181727 15.985423
			vertex 112.391758 98.180873 15.988387
			vertex 112.382145 101.306165 10.643703
		endloop
	endfacet
	facet normal -0.001544 0.010824 -0.999940
		outer loop
			vertex 114.317276 98.181727 15.985423
			vertex 114.317276 96.450716 15.966685
			vertex 112.391758 98.180873 15.988387
		endloop
	endfacet
	facet normal -0.001544 0.010824 -0.999940
		outer loop
			vertex 114.317276 96.450716 15.966685
			vertex 112.392496 96.449863 15.969648
			vertex 112.391758 98.180873 15.988387
		endloop
	endfacet
	facet normal 0.000409 0.858235 0.513257
		outer loop
			vertex 114.317276 100.490501 9.211618
			vertex 112.380306 100.489641 9.214601
			vertex 114.317276 96.450716 15.966685
		endloop
	endfacet
	facet normal 0.000410 0.858235 0.513257
		outer loop
			vertex 114.317276 96.450716 15.966685
			vertex 112.380306 100.489641 9.214601
			vertex 112.392496 96.449863 15.969648
		endloop
	endfacet
	facet normal -0.000427 0.999941 0.010824
		outer loop
			vertex 114.317276 100.550172 3.699273
			vertex 112.371794 100.549309 3.702268
			vertex 114.317276 100.490501 9.211618
		endloop
	endfacet
	facet normal -0.000427 0.999941 0.010824
		outer loop
			vertex 114.317276 100.490501 9.211618
			vertex 112.371794 100.549309 3.702268
			vertex 112.380306 100.489641 9.214601
		endloop
	endfacet
	facet normal 0.001544 -0.010824 0.999940
		outer loop
			vertex 114.317276 100.550172 3.699273
			vertex 114.317276 102.230764 3.717464
			vertex 112.371077 102.229900 3.720460
		endloop
	endfacet
	facet normal 0.001544 -0.010824 0.999940
		outer loop
			vertex 114.317276 100.550172 3.699273
			vertex 112.371077 102.229900 3.720460
			vertex 112.371794 100.549309 3.702268
		endloop
	endfacet
	facet normal 0.000427 -0.999941 -0.010824
		outer loop
			vertex 114.317276 102.230764 3.717464
			vertex 114.317276 102.171092 9.229810
			vertex 112.371077 102.229900 3.720460
		endloop
	endfacet
	facet normal 0.000427 -0.999941 -0.010825
		outer loop
			vertex 114.317276 102.171092 9.229810
			vertex 112.379589 102.170232 9.232793
			vertex 112.371077 102.229900 3.720460
		endloop
	endfacet
	facet normal -0.000000 -1.000000 0.000832
		outer loop
			vertex 106.852493 93.611522 3.679279
			vertex 108.634018 93.611522 3.679295
			vertex 104.624771 93.616800 10.020296
		endloop
	endfacet
	facet normal 0.000000 -1.000000 0.000832
		outer loop
			vertex 103.870361 93.615597 8.574656
			vertex 106.852493 93.611522 3.679279
			vertex 104.624771 93.616800 10.020296
		endloop
	endfacet
	facet normal -0.000000 -1.000000 0.000833
		outer loop
			vertex 100.970078 93.611522 3.679279
			vertex 103.870361 93.615597 8.574656
			vertex 102.902870 93.616839 10.065905
		endloop
	endfacet
	facet normal 0.000000 -1.000000 0.000832
		outer loop
			vertex 99.357620 93.611522 3.679279
			vertex 100.970078 93.611522 3.679279
			vertex 102.902870 93.616839 10.065905
		endloop
	endfacet
	facet normal -0.000000 -1.000000 0.000833
		outer loop
			vertex 103.870361 93.615597 8.574656
			vertex 104.624771 93.616800 10.020296
			vertex 102.902870 93.616839 10.065905
		endloop
	endfacet
	facet normal -0.000000 -1.000000 0.000833
		outer loop
			vertex 102.902870 93.616839 10.065905
			vertex 104.624771 93.616800 10.020296
			vertex 103.852463 93.617895 11.334833
		endloop
	endfacet
	facet normal -0.000000 -1.000000 0.000833
		outer loop
			vertex 104.624771 93.616800 10.020296
			vertex 108.418114 93.621741 15.955086
			vertex 106.791176 93.621771 15.990341
		endloop
	endfacet
	facet normal -0.000000 -1.000000 0.000833
		outer loop
			vertex 103.852463 93.617895 11.334833
			vertex 104.624771 93.616800 10.020296
			vertex 106.791176 93.621771 15.990341
		endloop
	endfacet
	facet normal 0.000000 -1.000000 0.000833
		outer loop
			vertex 102.902870 93.616839 10.065905
			vertex 103.852463 93.617895 11.334833
			vertex 101.222183 93.621771 15.990341
		endloop
	endfacet
	facet normal -0.000000 -1.000000 0.000832
		outer loop
			vertex 102.902870 93.616839 10.065905
			vertex 101.222183 93.621771 15.990341
			vertex 99.574902 93.621766 15.984146
		endloop
	endfacet
	facet normal 0.000000 0.000000 1.000000
		outer loop
			vertex 102.933608 97.239862 18.000000
			vertex 100.639467 96.147415 18.000000
			vertex 100.639467 95.727244 18.000000
		endloop
	endfacet
	facet normal 0.000000 0.000000 1.000000
		outer loop
			vertex 108.429463 95.727244 18.000000
			vertex 102.933608 97.239862 18.000000
			vertex 100.639467 95.727244 18.000000
		endloop
	endfacet
	facet normal 0.000000 0.000000 1.000000
		outer loop
			vertex 108.429463 97.239862 18.000000
			vertex 102.933608 97.239862 18.000000
			vertex 108.429463 95.727244 18.000000
		endloop
	endfacet
	facet normal 0.000000 0.000000 1.000000
		outer loop
			vertex 105.933640 106.525671 18.000000
			vertex 100.723500 108.038295 18.000000
			vertex 100.723500 106.525671 18.000000
		endloop
	endfacet
	facet normal 0.000000 0.000000 1.000000
		outer loop
			vertex 108.244587 108.038295 18.000000
			vertex 100.723500 108.038295 18.000000
			vertex 105.933640 106.525671 18.000000
		endloop
	endfacet
	facet normal 0.000000 0.000000 1.000000
		outer loop
			vertex 108.244587 108.038295 18.000000
			vertex 105.933640 106.525671 18.000000
			vertex 108.244587 107.618118 18.000000
		endloop
	endfacet
	facet normal 0.000000 0.000000 1.000000
		outer loop
			vertex 105.933640 106.525671 18.000000
			vertex 100.639467 96.147415 18.000000
			vertex 102.933608 97.239862 18.000000
		endloop
	endfacet
	facet normal -0.000000 0.000000 1.000000
		outer loop
			vertex 105.933640 106.525671 18.000000
			vertex 102.933608 97.239862 18.000000
			vertex 108.244587 107.618118 18.000000
		endloop
	endfacet
	facet normal 0.999999 0.000443 -0.001539
		outer loop
			vertex 112.379589 102.170232 9.232793
			vertex 112.371794 100.549309 3.702268
			vertex 112.371077 102.229900 3.720460
		endloop
	endfacet
	facet normal 0.999999 0.000443 -0.001539
		outer loop
			vertex 112.379589 102.170232 9.232793
			vertex 112.380306 100.489641 9.214601
			vertex 112.371794 100.549309 3.702268
		endloop
	endfacet
	facet normal 0.999999 0.000443 -0.001540
		outer loop
			vertex 112.382145 101.306165 10.643703
			vertex 112.380306 100.489641 9.214601
			vertex 112.379589 102.170232 9.232793
		endloop
	endfacet
	facet normal 0.999999 0.000443 -0.001540
		outer loop
			vertex 112.391758 98.180873 15.988387
			vertex 112.392496 96.449863 15.969648
			vertex 112.380306 100.489641 9.214601
		endloop
	endfacet
	facet normal 0.999999 0.000443 -0.001540
		outer loop
			vertex 112.391758 98.180873 15.988387
			vertex 112.380306 100.489641 9.214601
			vertex 112.382145 101.306165 10.643703
		endloop
	endfacet
	facet normal 0.999999 0.000444 -0.001540
		outer loop
			vertex 112.389139 104.315028 16.054789
			vertex 112.382145 101.306165 10.643703
			vertex 112.379589 102.170232 9.232793
		endloop
	endfacet
	facet normal 0.999999 0.000443 -0.001539
		outer loop
			vertex 112.388401 106.046038 16.073528
			vertex 112.389139 104.315028 16.054789
			vertex 112.379589 102.170232 9.232793
		endloop
	endfacet
endsolid /Volumes/Samsung USB/xyzCalibration_cube.stl
